HIERARCHY
ROOT Hips
{
	OFFSET 0.00000 0.00000 0.00000
	CHANNELS 6 Xposition Yposition Zposition Zrotation Yrotation Xrotation 
	JOINT LHipJoint
	{
		OFFSET 0 0 0
		CHANNELS 3 Zrotation Yrotation Xrotation
		JOINT LeftUpLeg
		{
			OFFSET 1.41261 -1.82971 0.84908
			CHANNELS 3 Zrotation Yrotation Xrotation
			JOINT LeftLeg
			{
				OFFSET 2.52554 -6.93888 0.00000
				CHANNELS 3 Zrotation Yrotation Xrotation
				JOINT LeftFoot
				{
					OFFSET 2.56654 -7.05152 0.00000
					CHANNELS 3 Zrotation Yrotation Xrotation
					JOINT LeftToeBase
					{
						OFFSET 0.21698 -0.59616 1.85369
						CHANNELS 3 Zrotation Yrotation Xrotation
						End Site
						{
							OFFSET 0.00000 -0.00000 0.97832
						}
					}
				}
			}
		}
	}
	JOINT RHipJoint
	{
		OFFSET 0 0 0
		CHANNELS 3 Zrotation Yrotation Xrotation
		JOINT RightUpLeg
		{
			OFFSET -1.12808 -1.82971 0.84907
			CHANNELS 3 Zrotation Yrotation Xrotation
			JOINT RightLeg
			{
				OFFSET -2.53425 -6.96280 0.00000
				CHANNELS 3 Zrotation Yrotation Xrotation
				JOINT RightFoot
				{
					OFFSET -2.58413 -7.09983 0.00000
					CHANNELS 3 Zrotation Yrotation Xrotation
					JOINT RightToeBase
					{
						OFFSET -0.26437 -0.72636 1.92241
						CHANNELS 3 Zrotation Yrotation Xrotation
						End Site
						{
							OFFSET -0.00000 -0.00000 1.02667
						}
					}
				}
			}
		}
	}
	JOINT LowerBack
	{
		OFFSET 0 0 0
		CHANNELS 3 Zrotation Yrotation Xrotation
		JOINT Spine
		{
			OFFSET -0.02096 2.02288 -0.14752
			CHANNELS 3 Zrotation Yrotation Xrotation
			JOINT Spine1
			{
				OFFSET 0.03477 2.03136 -0.02358
				CHANNELS 3 Zrotation Yrotation Xrotation
				JOINT Neck
				{
					OFFSET 0 0 0
					CHANNELS 3 Zrotation Yrotation Xrotation
					JOINT Neck1
					{
						OFFSET 0.00174 1.74359 0.19336
						CHANNELS 3 Zrotation Yrotation Xrotation
						JOINT Head
						{
							OFFSET -0.03054 1.76140 -0.17751
							CHANNELS 3 Zrotation Yrotation Xrotation
							End Site
							{
								OFFSET -0.00863 1.77239 -0.08120
							}
						}
					}
				}
				JOINT LeftShoulder
				{
					OFFSET 0 0 0
					CHANNELS 3 Zrotation Yrotation Xrotation
					JOINT LeftArm
					{
						OFFSET 3.68685 1.32687 -0.67367
						CHANNELS 3 Zrotation Yrotation Xrotation
						JOINT LeftForeArm
						{
							OFFSET 4.76468 -0.00000 -0.00000
							CHANNELS 3 Zrotation Yrotation Xrotation
							JOINT LeftHand
							{
								OFFSET 3.52712 -0.00000 -0.00000
								CHANNELS 3 Zrotation Yrotation Xrotation
								JOINT LeftFingerBase
								{
									OFFSET 0 0 0
									CHANNELS 3 Zrotation Yrotation Xrotation
									JOINT LeftHandIndex1
									{
										OFFSET 0.85956 -0.00000 -0.00000
										CHANNELS 3 Zrotation Yrotation Xrotation
										End Site
										{
											OFFSET 0.69300 -0.00000 -0.00000
										}
									}
								}
								JOINT LThumb
								{
									OFFSET 0 0 0
									CHANNELS 3 Zrotation Yrotation Xrotation
									End Site
									{
										OFFSET 0.70358 -0.00000 0.70358
									}
								}
							}
						}
					}
				}
				JOINT RightShoulder
				{
					OFFSET 0 0 0
					CHANNELS 3 Zrotation Yrotation Xrotation
					JOINT RightArm
					{
						OFFSET -3.31304 1.28268 -0.97357
						CHANNELS 3 Zrotation Yrotation Xrotation
						JOINT RightForeArm
						{
							OFFSET -4.90577 -0.00000 -0.00000
							CHANNELS 3 Zrotation Yrotation Xrotation
							JOINT RightHand
							{
								OFFSET -3.42692 -0.00000 0.00000
								CHANNELS 3 Zrotation Yrotation Xrotation
								JOINT RightFingerBase
								{
									OFFSET 0 0 0
									CHANNELS 3 Zrotation Yrotation Xrotation
									JOINT RightHandIndex1
									{
										OFFSET -0.74096 -0.00000 -0.00000
										CHANNELS 3 Zrotation Yrotation Xrotation
										End Site
										{
											OFFSET -0.59738 -0.00000 -0.00000
										}
									}
								}
								JOINT RThumb
								{
									OFFSET 0 0 0
									CHANNELS 3 Zrotation Yrotation Xrotation
									End Site
									{
										OFFSET -0.60650 -0.00000 0.60650
									}
								}
							}
						}
					}
				}
			}
		}
	}
}
MOTION
Frames: 9
Frame Time: .0083333
-5.8468 16.1733 10.0801 536.3510 408.0800 177.9720 0.0000 0.0000 0.0000 -14.9398 -8.1262 10.0074 3.0654 10.8002 31.6088 4.2583 -5.6958 -38.0153 3.6181 -11.6341 -34.4497 0.0000 0.0000 0.0000 8.2285 -13.2386 -46.4289 -5.8937 -14.3245 44.5536 2.8254 -28.5288 -16.4718 -4.4425 -12.7271 38.3553 -11.2655 0.5831 16.3918 -2.9168 -1.1702 1.6747 3.4591 -0.1384 -7.2237 -9.0736 -7.1792 -10.8735 12.0926 -9.5716 8.0940 4.4623 -4.2378 5.2533 0.0000 -0.0000 0.0000 -94.6144 3.3020 -29.3022 14.9095 -24.0199 -3.1890 -0.0000 -0.0000 7.8385 12.3538 -10.7750 -2.3447 -7.1250 0.0000 -0.0000 -10.3745 19.0509 6.5274 0.0000 -0.0000 0.0000 54.5653 -5.3179 -12.6642 -115.8715 57.3133 -82.2033 0.0000 0.0000 0.6968 -28.2738 -41.8748 19.7492 7.1250 -0.0000 -0.0000 15.7840 -75.0126 -11.2288
-5.9534 16.2454 10.1421 537.6100 407.2180 178.7510 0.0000 0.0000 0.0000 -13.5509 -8.3502 8.6819 3.2854 11.1432 32.7645 4.2628 -7.2111 -37.8353 3.4174 -11.3419 -33.4417 0.0000 0.0000 0.0000 8.8174 -13.5089 -45.1227 -5.3492 -13.7666 42.3102 2.9793 -29.1379 -16.3898 -4.5216 -12.8239 38.7127 -10.2432 0.7563 17.1377 -2.7184 -0.8004 2.0264 3.0280 0.0111 -7.3131 -9.3846 -7.4354 -10.4132 12.1968 -9.8803 7.6096 4.5282 -4.4195 5.0820 -0.0000 -0.0000 0.0000 -93.8938 0.7585 -26.5646 15.7282 -25.1508 -3.5297 -0.0000 -0.0000 7.8640 11.2435 -10.6117 -2.0966 -7.1250 0.0000 -0.0000 -11.1595 19.2704 6.9842 -0.0000 -0.0000 0.0000 59.0628 -7.6344 -9.7391 -115.7463 57.3408 -82.0979 0.0000 0.0000 2.9617 -28.5213 -41.4145 19.7728 7.1250 -0.0000 -0.0000 14.5628 -74.6799 -10.2486
-6.0268 16.3341 10.1827 539.2370 406.8760 179.7940 0.0000 0.0000 0.0000 -12.4267 -8.4495 9.5816 2.9198 10.5641 30.8235 4.0678 -7.0191 -36.9283 3.2438 -11.0797 -32.5491 0.0000 0.0000 0.0000 9.9319 -13.5975 -43.7079 -4.8177 -13.1755 40.0291 3.0245 -29.2845 -16.1192 -4.6022 -12.9213 39.0746 -9.1767 0.9650 17.3567 -2.3367 -0.2993 2.3701 2.7329 0.2090 -7.1258 -9.6572 -7.6644 -9.9445 12.1381 -10.1643 7.3471 4.5394 -4.5945 4.9645 0.0000 0.0000 0.0000 -93.7667 -0.8868 -22.5424 17.3725 -27.3462 -4.2570 -0.0000 -0.0000 5.1731 11.1576 -10.2087 -2.0021 -7.1250 0.0000 -0.0000 -11.2378 19.6768 6.9311 0.0000 0.0000 0.0000 62.7399 -9.2435 -6.4751 -113.2379 57.8579 -79.9799 0.0000 0.0000 5.1981 -26.7818 -40.5140 18.1541 7.1250 -0.0000 -0.0000 15.6119 -73.2207 -10.5083
-6.0730 16.4278 10.2204 540.6440 406.6350 180.7920 0.0000 0.0000 0.0000 -11.4238 -8.4992 10.3255 2.6006 10.0186 29.0369 3.8936 -6.5397 -36.1394 3.1954 -11.0048 -32.2960 0.0000 0.0000 0.0000 11.0945 -13.8331 -42.4944 -4.3153 -12.5685 37.7740 3.0632 -29.3368 -15.1254 -4.6413 -12.9680 39.2489 -8.5504 1.0618 17.3121 -1.8558 -0.0089 2.5944 2.8369 0.3191 -6.8918 -9.7722 -7.7040 -9.5778 11.8795 -10.2085 7.3636 4.4830 -4.6503 4.9035 0.0000 -0.0000 0.0000 -94.0241 -1.5453 -18.1569 19.7792 -30.3754 -5.4193 -0.0000 -0.0000 0.7307 11.5757 -9.8625 -2.0093 -7.1250 0.0000 -0.0000 -10.9587 20.0037 6.6706 0.0000 -0.0000 0.0000 65.2102 -10.1834 -2.5854 -108.1478 58.7183 -75.6488 0.0000 0.0000 6.7924 -24.0339 -39.4309 15.8140 7.1250 -0.0000 -0.0000 17.7289 -71.2746 -11.2078
-6.0954 16.5200 10.2583 540.8250 406.2850 181.1160 0.0000 0.0000 0.0000 -11.4498 -9.0256 10.8113 2.3491 9.5582 27.5576 3.7027 -6.3217 -35.2182 3.1099 -10.8708 -31.8454 0.0000 0.0000 0.0000 11.3879 -14.3156 -41.6006 -3.8494 -11.9572 35.5808 3.1172 -29.4558 -13.7066 -4.6993 -13.0370 39.5070 -8.8733 1.0468 17.1150 -1.5651 -0.0559 2.5984 3.3442 0.2978 -6.7724 -9.8435 -7.5965 -9.2618 11.6842 -10.0853 7.7066 4.4531 -4.6103 4.9338 0.0000 -0.0000 0.0000 -94.1200 -1.4234 -13.9879 22.5221 -33.5621 -6.8723 -0.0000 0.0000 -3.9860 12.2115 -10.2152 -2.1980 -7.1250 0.0000 -0.0000 -10.4950 19.6204 6.4701 0.0000 -0.0000 0.0000 66.8169 -10.7633 1.6492 -100.9055 59.5458 -69.4301 0.0000 0.0000 7.6967 -19.7271 -37.9926 12.4473 7.1250 -0.0000 -0.0000 21.1675 -68.5709 -12.1737
-6.0993 16.6159 10.2954 540.1340 405.8240 181.0550 0.0000 0.0000 0.0000 -12.1204 -9.8262 11.0162 2.1307 9.1331 26.2126 3.5049 -6.2408 -34.2220 2.9271 -10.5761 -30.8633 0.0000 0.0000 0.0000 11.0303 -14.8767 -40.9788 -3.4253 -11.3536 33.4817 3.1501 -29.5482 -12.3660 -4.6818 -13.0162 39.4293 -9.7282 0.9465 16.8382 -1.4913 -0.3360 2.3822 3.9671 0.1859 -6.8138 -9.9593 -7.4648 -8.9904 11.7929 -9.9666 8.2875 4.5234 -4.5480 5.0646 -0.0000 0.0000 0.0000 -93.6738 -0.8532 -9.9897 25.2540 -36.4625 -8.4404 -0.0000 0.0000 -8.1920 12.6633 -10.5091 -2.3467 -7.1250 0.0000 -0.0000 -10.1660 19.3020 6.3341 -0.0000 0.0000 0.0000 68.0841 -11.0901 5.6397 -91.8981 59.9864 -61.6437 0.0000 0.0000 8.3724 -16.7102 -38.4857 10.5823 7.1250 -0.0000 -0.0000 25.3917 -68.0760 -14.4308
-6.1071 16.7108 10.3685 539.4240 404.2300 181.3700 0.0000 0.0000 0.0000 -12.3983 -11.3775 10.3555 1.9867 8.8382 25.2906 3.3055 -6.3705 -33.1639 2.7853 -10.3392 -30.0822 0.0000 0.0000 0.0000 10.6488 -16.0653 -40.8728 -3.0559 -10.7849 31.5580 3.2649 -30.0190 -11.4747 -4.5251 -12.8282 38.7286 -10.3957 0.4619 17.0229 -1.4030 -1.1713 1.9223 4.6283 -0.1707 -7.2854 -10.0313 -7.3735 -8.8490 11.9766 -9.9023 8.8302 4.6022 -4.5009 5.2135 0.0000 -0.0000 0.0000 -92.7668 -0.2380 -6.1600 27.8929 -39.0175 -10.0562 -0.0000 0.0000 -11.5735 13.4104 -9.2987 -2.2063 -7.1250 0.0000 -0.0000 -9.6797 20.4865 5.7614 0.0000 -0.0000 0.0000 69.2755 -11.1723 8.3663 -82.3009 59.7748 -53.3374 0.0000 0.0000 11.0537 -10.3800 -37.9013 6.4202 7.1250 -0.0000 -0.0000 31.5833 -65.7059 -16.5167
-6.0987 16.7918 10.3947 539.2470 403.5550 182.0230 0.0000 0.0000 0.0000 -12.3734 -12.1214 10.1785 1.7732 8.3768 23.8645 3.1212 -5.9971 -32.2233 2.6613 -10.1254 -29.3837 0.0000 0.0000 0.0000 10.8881 -16.8754 -40.9659 -2.7973 -10.3594 30.1487 3.2055 -29.8220 -10.1138 -4.1003 -12.2927 36.7753 -10.3680 0.1738 16.5931 -1.3006 -1.5364 1.6094 4.8002 -0.3459 -7.3347 -10.0919 -7.3505 -8.8668 12.1181 -9.9033 9.1938 4.6555 -4.4856 5.3391 0.0000 0.0000 0.0000 -91.6677 0.1725 -2.6243 30.5382 -41.3502 -11.7636 -0.0000 0.0000 -13.9893 15.1226 -6.3292 -1.7064 -7.1250 0.0000 -0.0000 -8.5617 23.4396 4.4981 0.0000 0.0000 0.0000 70.4527 -11.1341 10.1889 -73.0196 58.8820 -45.3497 0.0000 0.0000 12.7537 -7.0938 -36.8874 4.2720 7.1250 -0.0000 -0.0000 33.7062 -63.9624 -16.3910
-6.0755 16.8714 10.3579 539.6320 404.2840 182.2460 0.0000 0.0000 0.0000 -12.4664 -11.7727 11.6081 1.4851 7.6992 21.8040 2.9863 -5.1448 -31.6029 2.5156 -9.8662 -28.5446 0.0000 0.0000 0.0000 11.4828 -17.1938 -40.2643 -2.6169 -10.0473 29.1302 2.8781 -28.5612 -7.9189 -3.3555 -11.2494 33.1257 -9.7432 0.3116 16.1412 -1.1685 -1.1845 1.6801 4.5075 -0.2144 -7.0733 -10.1287 -7.3786 -9.0045 12.2010 -9.9430 9.2942 4.6795 -4.4937 5.4045 0.0000 -0.0000 0.0000 -90.6286 0.3677 0.2751 33.2443 -43.5170 -13.5900 -0.0000 0.0000 -14.9584 13.1730 -11.7348 -2.7253 -7.1250 0.0000 -0.0000 -9.7744 18.0380 6.3608 0.0000 -0.0000 0.0000 71.5018 -10.9108 11.0698 -64.4554 57.3848 -38.0719 0.0000 0.0000 12.6822 -6.2039 -35.7896 3.6375 7.1250 -0.0000 -0.0000 33.2999 -62.8301 -15.2927
